<mxfile host="app.diagrams.net" agent="Mozilla/5.0 (Windows NT 10.0; Win64; x64) AppleWebKit/537.36 (KHTML, like Gecko) Chrome/128.0.0.0 Safari/537.36" version="24.7.10">
  <diagram name="PÃ¡gina-1" id="TnIuBW86fYFMM6BSOwUr">
    <mxGraphModel dx="880" dy="460" grid="1" gridSize="10" guides="1" tooltips="1" connect="1" arrows="1" fold="1" page="1" pageScale="1" pageWidth="827" pageHeight="1169" math="0" shadow="0">
      <root>
        <mxCell id="0" />
        <mxCell id="1" parent="0" />
        <mxCell id="gP-3oRUWCVqPYXhWfMdv-1" value="MODELO" style="shape=folder;fontStyle=1;tabWidth=80;tabHeight=30;tabPosition=left;html=1;boundedLbl=1;whiteSpace=wrap;fillColor=#d5e8d4;strokeColor=#82b366;" vertex="1" parent="1">
          <mxGeometry x="40" y="120" width="220" height="90" as="geometry" />
        </mxCell>
        <mxCell id="gP-3oRUWCVqPYXhWfMdv-4" value="" style="edgeStyle=orthogonalEdgeStyle;rounded=0;orthogonalLoop=1;jettySize=auto;html=1;fillColor=#dae8fc;strokeColor=#6c8ebf;" edge="1" parent="1" source="gP-3oRUWCVqPYXhWfMdv-2" target="gP-3oRUWCVqPYXhWfMdv-1">
          <mxGeometry relative="1" as="geometry" />
        </mxCell>
        <mxCell id="gP-3oRUWCVqPYXhWfMdv-2" value="ActiveRecord&lt;div&gt;&lt;br&gt;&lt;/div&gt;" style="shape=note2;boundedLbl=1;whiteSpace=wrap;html=1;size=25;verticalAlign=top;align=center;fillColor=#dae8fc;strokeColor=#6c8ebf;" vertex="1" parent="1">
          <mxGeometry x="90" y="240" width="120" height="60" as="geometry" />
        </mxCell>
        <mxCell id="gP-3oRUWCVqPYXhWfMdv-5" value="" style="edgeStyle=orthogonalEdgeStyle;rounded=0;orthogonalLoop=1;jettySize=auto;html=1;fillColor=#dae8fc;strokeColor=#6c8ebf;" edge="1" parent="1" source="gP-3oRUWCVqPYXhWfMdv-3" target="gP-3oRUWCVqPYXhWfMdv-2">
          <mxGeometry relative="1" as="geometry" />
        </mxCell>
        <mxCell id="gP-3oRUWCVqPYXhWfMdv-3" value="&lt;div&gt;Usuario&lt;/div&gt;" style="shape=note2;boundedLbl=1;whiteSpace=wrap;html=1;size=25;verticalAlign=top;align=center;fillColor=#dae8fc;strokeColor=#6c8ebf;" vertex="1" parent="1">
          <mxGeometry x="90" y="340" width="120" height="60" as="geometry" />
        </mxCell>
        <mxCell id="gP-3oRUWCVqPYXhWfMdv-6" value="CONTROLADOR" style="shape=folder;fontStyle=1;tabWidth=80;tabHeight=30;tabPosition=left;html=1;boundedLbl=1;whiteSpace=wrap;fillColor=#d5e8d4;strokeColor=#82b366;" vertex="1" parent="1">
          <mxGeometry x="350" y="120" width="220" height="90" as="geometry" />
        </mxCell>
        <mxCell id="gP-3oRUWCVqPYXhWfMdv-8" value="" style="edgeStyle=orthogonalEdgeStyle;rounded=0;orthogonalLoop=1;jettySize=auto;html=1;fillColor=#dae8fc;strokeColor=#6c8ebf;" edge="1" parent="1" source="gP-3oRUWCVqPYXhWfMdv-7" target="gP-3oRUWCVqPYXhWfMdv-3">
          <mxGeometry relative="1" as="geometry" />
        </mxCell>
        <mxCell id="gP-3oRUWCVqPYXhWfMdv-7" value="&lt;div&gt;Database connection&lt;/div&gt;" style="shape=note2;boundedLbl=1;whiteSpace=wrap;html=1;size=25;verticalAlign=top;align=center;fillColor=#dae8fc;strokeColor=#6c8ebf;" vertex="1" parent="1">
          <mxGeometry x="90" y="440" width="120" height="60" as="geometry" />
        </mxCell>
        <mxCell id="gP-3oRUWCVqPYXhWfMdv-10" value="" style="edgeStyle=orthogonalEdgeStyle;rounded=0;orthogonalLoop=1;jettySize=auto;html=1;fillColor=#dae8fc;strokeColor=#6c8ebf;" edge="1" parent="1" source="gP-3oRUWCVqPYXhWfMdv-9" target="gP-3oRUWCVqPYXhWfMdv-6">
          <mxGeometry relative="1" as="geometry" />
        </mxCell>
        <mxCell id="gP-3oRUWCVqPYXhWfMdv-9" value="&lt;div&gt;JuegoController&lt;/div&gt;" style="shape=note2;boundedLbl=1;whiteSpace=wrap;html=1;size=25;verticalAlign=top;align=center;fillColor=#dae8fc;strokeColor=#6c8ebf;" vertex="1" parent="1">
          <mxGeometry x="400" y="250" width="120" height="60" as="geometry" />
        </mxCell>
        <mxCell id="gP-3oRUWCVqPYXhWfMdv-12" value="" style="edgeStyle=orthogonalEdgeStyle;rounded=0;orthogonalLoop=1;jettySize=auto;html=1;fillColor=#dae8fc;strokeColor=#6c8ebf;" edge="1" parent="1" source="gP-3oRUWCVqPYXhWfMdv-11" target="gP-3oRUWCVqPYXhWfMdv-9">
          <mxGeometry relative="1" as="geometry" />
        </mxCell>
        <mxCell id="gP-3oRUWCVqPYXhWfMdv-11" value="&lt;div&gt;UsuarioController&lt;/div&gt;" style="shape=note2;boundedLbl=1;whiteSpace=wrap;html=1;size=25;verticalAlign=top;align=center;fillColor=#dae8fc;strokeColor=#6c8ebf;" vertex="1" parent="1">
          <mxGeometry x="400" y="370" width="120" height="60" as="geometry" />
        </mxCell>
        <mxCell id="gP-3oRUWCVqPYXhWfMdv-14" value="VISTA" style="shape=folder;fontStyle=1;tabWidth=80;tabHeight=30;tabPosition=left;html=1;boundedLbl=1;whiteSpace=wrap;fillColor=#d5e8d4;strokeColor=#82b366;" vertex="1" parent="1">
          <mxGeometry x="720" y="120" width="220" height="90" as="geometry" />
        </mxCell>
        <mxCell id="gP-3oRUWCVqPYXhWfMdv-15" value="" style="edgeStyle=orthogonalEdgeStyle;rounded=0;orthogonalLoop=1;jettySize=auto;html=1;fillColor=#dae8fc;strokeColor=#6c8ebf;" edge="1" parent="1" source="gP-3oRUWCVqPYXhWfMdv-16">
          <mxGeometry relative="1" as="geometry">
            <mxPoint x="830" y="210" as="targetPoint" />
          </mxGeometry>
        </mxCell>
        <mxCell id="gP-3oRUWCVqPYXhWfMdv-16" value="&lt;div&gt;crear_cuenta&lt;/div&gt;" style="shape=note2;boundedLbl=1;whiteSpace=wrap;html=1;size=25;verticalAlign=top;align=center;fillColor=#dae8fc;strokeColor=#6c8ebf;" vertex="1" parent="1">
          <mxGeometry x="770" y="240" width="120" height="60" as="geometry" />
        </mxCell>
        <mxCell id="gP-3oRUWCVqPYXhWfMdv-17" value="" style="edgeStyle=orthogonalEdgeStyle;rounded=0;orthogonalLoop=1;jettySize=auto;html=1;fillColor=#dae8fc;strokeColor=#6c8ebf;" edge="1" parent="1" source="gP-3oRUWCVqPYXhWfMdv-18" target="gP-3oRUWCVqPYXhWfMdv-16">
          <mxGeometry relative="1" as="geometry" />
        </mxCell>
        <mxCell id="gP-3oRUWCVqPYXhWfMdv-18" value="&lt;div&gt;login&lt;/div&gt;" style="shape=note2;boundedLbl=1;whiteSpace=wrap;html=1;size=25;verticalAlign=top;align=center;fillColor=#dae8fc;strokeColor=#6c8ebf;" vertex="1" parent="1">
          <mxGeometry x="770" y="340" width="120" height="60" as="geometry" />
        </mxCell>
        <mxCell id="gP-3oRUWCVqPYXhWfMdv-19" value="" style="edgeStyle=orthogonalEdgeStyle;rounded=0;orthogonalLoop=1;jettySize=auto;html=1;fillColor=#dae8fc;strokeColor=#6c8ebf;" edge="1" parent="1" source="gP-3oRUWCVqPYXhWfMdv-20" target="gP-3oRUWCVqPYXhWfMdv-18">
          <mxGeometry relative="1" as="geometry" />
        </mxCell>
        <mxCell id="gP-3oRUWCVqPYXhWfMdv-20" value="&lt;div&gt;inicio_juego&lt;/div&gt;" style="shape=note2;boundedLbl=1;whiteSpace=wrap;html=1;size=25;verticalAlign=top;align=center;fillColor=#dae8fc;strokeColor=#6c8ebf;" vertex="1" parent="1">
          <mxGeometry x="770" y="440" width="120" height="60" as="geometry" />
        </mxCell>
        <mxCell id="gP-3oRUWCVqPYXhWfMdv-22" value="" style="edgeStyle=orthogonalEdgeStyle;rounded=0;orthogonalLoop=1;jettySize=auto;html=1;fillColor=#dae8fc;strokeColor=#6c8ebf;" edge="1" parent="1" source="gP-3oRUWCVqPYXhWfMdv-21" target="gP-3oRUWCVqPYXhWfMdv-20">
          <mxGeometry relative="1" as="geometry" />
        </mxCell>
        <mxCell id="gP-3oRUWCVqPYXhWfMdv-21" value="&lt;div&gt;jugadores&lt;/div&gt;" style="shape=note2;boundedLbl=1;whiteSpace=wrap;html=1;size=25;verticalAlign=top;align=center;fillColor=#dae8fc;strokeColor=#6c8ebf;" vertex="1" parent="1">
          <mxGeometry x="770" y="540" width="120" height="60" as="geometry" />
        </mxCell>
      </root>
    </mxGraphModel>
  </diagram>
</mxfile>
